<?xml version="1.0" encoding="UTF-8" standalone="no"?>
<!-- Created with Inkscape (http://www.inkscape.org/) -->

<svg
   width="49.165642mm"
   height="49.165642mm"
   viewBox="0 0 49.165642 49.165642"
   version="1.1"
   id="svg5"
   xml:space="preserve"
   inkscape:export-filename="bitmap.png"
   inkscape:export-xdpi="96"
   inkscape:export-ydpi="96"
   inkscape:version="1.2.1 (9c6d41e410, 2022-07-14)"
   sodipodi:docname="paperless.svg"
   xmlns:inkscape="http://www.inkscape.org/namespaces/inkscape"
   xmlns:sodipodi="http://sodipodi.sourceforge.net/DTD/sodipodi-0.dtd"
   xmlns="http://www.w3.org/2000/svg"
   xmlns:svg="http://www.w3.org/2000/svg"><sodipodi:namedview
     id="namedview7"
     pagecolor="#505050"
     bordercolor="#eeeeee"
     borderopacity="1"
     inkscape:showpageshadow="0"
     inkscape:pageopacity="0"
     inkscape:pagecheckerboard="0"
     inkscape:deskcolor="#505050"
     inkscape:document-units="mm"
     showgrid="false"
     showguides="false"
     inkscape:zoom="2.3786088"
     inkscape:cx="-5.8857934"
     inkscape:cy="123.81187"
     inkscape:window-width="1920"
     inkscape:window-height="1050"
     inkscape:window-x="0"
     inkscape:window-y="0"
     inkscape:window-maximized="1"
     inkscape:current-layer="layer1" /><defs
     id="defs2"><inkscape:path-effect
       effect="fillet_chamfer"
       id="path-effect9882"
       is_visible="true"
       lpeversion="1"
       nodesatellites_param="F,0,0,1,0,10.583333,0,1 @ F,0,0,1,0,10.583333,0,1 @ F,0,0,1,0,10.583333,0,1 @ F,0,0,1,0,10.583333,0,1"
       unit="px"
       method="auto"
       mode="F"
       radius="40"
       chamfer_steps="1"
       flexible="false"
       use_knot_distance="true"
       apply_no_radius="true"
       apply_with_radius="true"
       only_selected="false"
       hide_knots="false" /><inkscape:path-effect
       effect="fillet_chamfer"
       id="path-effect443"
       is_visible="true"
       lpeversion="1"
       nodesatellites_param="F,0,0,1,0,10.583333,0,1 @ F,0,0,1,0,10.583333,0,1 @ F,0,0,1,0,10.583333,0,1 @ F,0,0,1,0,10.583333,0,1"
       unit="px"
       method="auto"
       mode="F"
       radius="40"
       chamfer_steps="1"
       flexible="false"
       use_knot_distance="true"
       apply_no_radius="true"
       apply_with_radius="true"
       only_selected="false"
       hide_knots="false" /></defs><g
     inkscape:label="Layer 1"
     inkscape:groupmode="layer"
     id="layer1"
     transform="translate(-81.605515,-105.82754)"><path
       id="path9878"
       style="fill:#305716;stroke-width:0.266954;fill-opacity:1"
       d="m 92.424812,106.92871 h 27.764538 a 10.583333,10.583333 45 0 1 10.58333,10.58333 v 26.89934 a 10.583333,10.583333 135 0 1 -10.58333,10.58333 H 92.424812 A 10.583333,10.583333 45 0 1 81.841479,144.41138 v -26.89934 a 10.583333,10.583333 135 0 1 10.583333,-10.58333 z"
       inkscape:path-effect="#path-effect9882"
       inkscape:original-d="m 81.841479,106.92871 h 48.931201 v 48.066 H 81.841479 Z"
       sodipodi:nodetypes="ccccc"
       transform="translate(7.7083334e-7)" /><path
       id="rect230"
       style="fill:#3d6d1c;stroke-width:0.264583"
       d="m 92.188848,105.82754 h 26.899332 a 10.583333,10.583333 45 0 1 10.58333,10.58333 v 26.89934 a 10.583333,10.583333 135 0 1 -10.58333,10.58333 H 92.188848 A 10.583333,10.583333 45 0 1 81.605515,143.31021 v -26.89934 a 10.583333,10.583333 135 0 1 10.583333,-10.58333 z"
       inkscape:path-effect="#path-effect443"
       inkscape:original-d="m 81.605515,105.82754 h 48.065995 v 48.066 H 81.605515 Z"
       sodipodi:nodetypes="ccccc" /><g
       style="fill:#e1e1e1;fill-opacity:1"
       id="g18"
       transform="matrix(0.08672734,0,0,0.08672734,99.737162,118.39704)"><path
         style="fill:#000000;fill-opacity:0.1;stroke-width:3.05075"
         d="m 239.19571,-75.672073 c 33.64515,38.328035 46.6971,95.811974 36.11333,144.229267 C 257.58327,149.64678 199.98177,229.30458 119.55306,262.84459 82.11575,279.66386 21.627542,274.0014 10.085939,325.67702 c -8.7417726,27.70936 -41.024472,18.18125 -36.351975,7.30951 7.531827,-17.52468 2.624961,-37.96137 -4.726732,-53.42737 -17.458837,-34.83791 -31.095463,-73.27621 -24.354636,-111.7421 -16.164126,-17.01084 -34.099381,-8.80166 -21.204714,-65.3288 27.24854,16.97515 93.035789,51.27312 116.936236,12.63972 C 59.768644,85.581128 85.8697,57.413296 122.75787,52.191309 177.68071,40.911765 211.36685,-10.694182 234.06539,-57.715996"
         id="path582"
         sodipodi:nodetypes="caccscccccc" /><path
         _ngcontent-bhk-c116=""
         d="M 239.91125,-76.032652 C 187.29514,46.427555 -65.73866,61.618554 15.239749,258.96352 c 1.001229,2.53758 -18.7298125,29.34626 -31.88384,51.61488 -3.038203,-11.13431 -6.577014,-23.26985 -6.076405,-24.28834 65.787405,-77.92295 -47.057584,-121.9596 -53.13399,-185.71003 -28.345044,50.59641 -38.460874,139.15306 46.988532,190.26733 0.517878,0 4.55731,19.23043 6.577014,28.84565 a 101.07197,101.07197 0 0 0 -5.057906,11.13431 c -2.019716,5.05792 13.154028,4.5573 13.154028,5.55853 1.519095,-0.50061 37.459636,-63.75044 38.460854,-64.2683 C 227.77573,225.57783 263.699,42.388135 239.91125,-76.032652 Z M 136.18087,53.004569 C 41.047196,138.02241 24.854965,201.27222 27.893168,232.15484 -3.9906842,156.75222 89.623884,73.754095 136.18087,53.004569 Z M -47.509457,174.46356 c 18.211947,16.69284 48.5766914,67.80711 22.769244,97.65399 6.076406,-13.65465 8.096122,-44.52 -22.769244,-97.65399 z"
         id="path9"
         style="fill:#e1e1e1;fill-opacity:1;stroke-width:1.72625" /></g></g></svg>
