<?xml version="1.0" encoding="UTF-8" standalone="no"?>
<!-- Created with Inkscape (http://www.inkscape.org/) -->

<svg
   width="120"
   height="120"
   viewBox="0 0 120 120"
   version="1.1"
   id="svg5"
   xml:space="preserve"
   inkscape:version="1.2.1 (9c6d41e410, 2022-07-14)"
   sodipodi:docname="nextcloud.svg"
   xmlns:inkscape="http://www.inkscape.org/namespaces/inkscape"
   xmlns:sodipodi="http://sodipodi.sourceforge.net/DTD/sodipodi-0.dtd"
   xmlns="http://www.w3.org/2000/svg"
   xmlns:svg="http://www.w3.org/2000/svg"><sodipodi:namedview
     id="namedview7"
     pagecolor="#505050"
     bordercolor="#eeeeee"
     borderopacity="1"
     inkscape:showpageshadow="0"
     inkscape:pageopacity="0"
     inkscape:pagecheckerboard="0"
     inkscape:deskcolor="#505050"
     inkscape:document-units="px"
     showgrid="false"
     inkscape:zoom="2.7812867"
     inkscape:cx="8.8088726"
     inkscape:cy="82.515766"
     inkscape:window-width="1920"
     inkscape:window-height="1050"
     inkscape:window-x="0"
     inkscape:window-y="0"
     inkscape:window-maximized="1"
     inkscape:current-layer="g5444" /><defs
     id="defs2"><inkscape:path-effect
       effect="offset"
       id="path-effect5430"
       is_visible="true"
       lpeversion="1.2"
       linejoin_type="miter"
       unit="mm"
       offset="0.2"
       miter_limit="3.6"
       attempt_force_join="false"
       update_on_knot_move="true" /><inkscape:path-effect
       effect="fillet_chamfer"
       id="path-effect5428"
       is_visible="true"
       lpeversion="1"
       nodesatellites_param="F,0,0,1,0,24,0,1 @ F,0,0,1,0,24,0,1 @ F,0,0,1,0,24,0,1 @ F,0,0,1,0,24,0,1"
       unit="px"
       method="auto"
       mode="F"
       radius="24"
       chamfer_steps="1"
       flexible="false"
       use_knot_distance="true"
       apply_no_radius="true"
       apply_with_radius="true"
       only_selected="false"
       hide_knots="false" /><inkscape:path-effect
       effect="fillet_chamfer"
       id="path-effect5314"
       is_visible="true"
       lpeversion="1"
       nodesatellites_param="F,0,0,1,0,24,0,1 @ F,0,0,1,0,24,0,1 @ F,0,0,1,0,24,0,1 @ F,0,0,1,0,24,0,1"
       unit="px"
       method="auto"
       mode="F"
       radius="24"
       chamfer_steps="1"
       flexible="false"
       use_knot_distance="true"
       apply_no_radius="true"
       apply_with_radius="true"
       only_selected="false"
       hide_knots="false" /><clipPath
       clipPathUnits="userSpaceOnUse"
       id="clipPath8812"><circle
         id="circle8814"
         cx="95.669289"
         cy="95.669296"
         r="79.724197"
         style="fill:#00080d;fill-opacity:1;stroke-width:1" /></clipPath></defs><g
     inkscape:label="Layer 1"
     inkscape:groupmode="layer"
     id="layer1"><path
       style="fill:#003f97;fill-opacity:1;stroke-width:2.92535"
       id="rect234"
       width="115"
       height="115"
       x="5"
       y="5"
       inkscape:path-effect="#path-effect5314"
       d="m 29,5 h 67 a 24,24 45 0 1 24,24 V 96 A 24,24 135 0 1 96,120 H 29 A 24,24 45 0 1 5,96 V 29 A 24,24 135 0 1 29,5 Z"
       sodipodi:type="rect" /><path
       style="fill:#007afc;fill-opacity:1;stroke-width:2.92535"
       id="rect5424"
       width="115"
       height="115"
       x="-2.0821615e-17"
       y="-1.4802961e-16"
       inkscape:path-effect="#path-effect5428"
       d="m 24,0 h 67 a 24,24 45 0 1 24,24 V 91 A 24,24 135 0 1 91,115 H 24 A 24,24 45 0 1 0,91 V 24 A 24,24 135 0 1 24,0 Z"
       sodipodi:type="rect" /><g
       id="g5444"
       transform="matrix(1.0666667,0,0,1.0666667,-9.4399413,6.2878185)"><path
         inkscape:connector-curvature="0"
         id="path1052"
         d="m 61.674214,28.419692 c -9.813761,0 -18.131738,6.653084 -20.709755,15.667259 -2.240566,-4.781255 -7.095951,-8.130926 -12.688511,-8.130926 -7.691094,0 -14.013372,6.322281 -14.013372,14.01337 0,7.69108 6.322278,14.016246 14.013372,14.016246 5.59256,0 10.447945,-3.351719 12.688512,-8.133814 2.578017,9.014861 10.895993,15.670156 20.709754,15.670156 9.741183,0 18.016747,-6.554919 20.6607,-15.468101 2.281958,4.673532 7.077248,7.931759 12.590374,7.931759 7.691092,0 14.016242,-6.325166 14.016242,-14.016246 0,-7.691089 -6.32515,-14.01337 -14.016242,-14.01337 -5.513126,0 -10.308416,3.256186 -12.590374,7.928881 C 79.690961,34.97242 71.415397,28.419692 61.674214,28.419692 Z m 0,8.226177 c 7.408283,0 13.326415,5.915267 13.326415,13.323526 0,7.408248 -5.918132,13.326406 -13.326415,13.326406 -7.408237,0 -13.323504,-5.918158 -13.323504,-13.326406 0,-7.408259 5.915266,-13.323524 13.323504,-13.323526 z m -33.398266,7.536334 c 3.245724,0 5.79007,2.541451 5.79007,5.787192 0,3.24573 -2.544346,5.790069 -5.79007,5.790069 -3.245732,0 -5.78721,-2.544339 -5.78721,-5.790069 0,-3.245741 2.541478,-5.787192 5.78721,-5.787192 z m 66.64934,0 c 3.245757,0 5.790072,2.541451 5.790072,5.787192 0,3.24573 -2.544325,5.790069 -5.790072,5.790069 -3.245707,0 -5.787181,-2.544339 -5.787181,-5.790069 0,-3.245741 2.541482,-5.787192 5.787181,-5.787192 z"
         style="color:#000000;font-style:normal;font-variant:normal;font-weight:normal;font-stretch:normal;font-size:medium;line-height:normal;font-family:sans-serif;text-indent:0;text-align:start;text-decoration:none;text-decoration-line:none;text-decoration-style:solid;text-decoration-color:#000000;letter-spacing:normal;word-spacing:normal;text-transform:none;writing-mode:lr-tb;direction:ltr;baseline-shift:baseline;text-anchor:start;white-space:normal;clip-rule:nonzero;display:inline;overflow:visible;visibility:visible;opacity:1;isolation:auto;mix-blend-mode:normal;color-interpolation:sRGB;color-interpolation-filters:linearRGB;solid-color:#000000;solid-opacity:1;fill:#000000;fill-opacity:0.23809524;fill-rule:nonzero;stroke:none;stroke-width:4.62695;stroke-linecap:butt;stroke-linejoin:miter;stroke-miterlimit:10;stroke-dasharray:none;stroke-dashoffset:0;stroke-opacity:1;color-rendering:auto;image-rendering:auto;shape-rendering:auto;text-rendering:auto;enable-background:accumulate"
         inkscape:export-filename="Nextcloud Hub logo variants.png"
         inkscape:export-xdpi="300"
         inkscape:export-ydpi="300" /><path
         inkscape:connector-curvature="0"
         id="path5446"
         d="m 60.662991,25.554562 c -9.813761,0 -18.131738,6.653084 -20.709755,15.667259 -2.240566,-4.781255 -7.095951,-8.130926 -12.688511,-8.130926 -7.691094,0 -14.013372,6.322281 -14.013372,14.01337 0,7.69108 6.322278,14.016246 14.013372,14.016246 5.59256,0 10.447945,-3.351719 12.688512,-8.133814 2.578017,9.014861 10.895993,15.670156 20.709754,15.670156 9.741183,0 18.016747,-6.554919 20.6607,-15.468101 2.281958,4.673532 7.077248,7.931759 12.590374,7.931759 7.691095,0 14.016245,-6.325166 14.016245,-14.016246 0,-7.691089 -6.32515,-14.01337 -14.016245,-14.01337 -5.513126,0 -10.308416,3.256186 -12.590374,7.928881 C 78.679738,32.10729 70.404174,25.554562 60.662991,25.554562 Z m 0,8.226177 c 7.408283,0 13.326415,5.915267 13.326415,13.323526 0,7.408248 -5.918132,13.326406 -13.326415,13.326406 -7.408237,0 -13.323504,-5.918158 -13.323504,-13.326406 0,-7.408259 5.915266,-13.323524 13.323504,-13.323526 z m -33.398266,7.536334 c 3.245724,0 5.79007,2.541451 5.79007,5.787192 0,3.24573 -2.544346,5.790069 -5.79007,5.790069 -3.245732,0 -5.78721,-2.544339 -5.78721,-5.790069 0,-3.245741 2.541478,-5.787192 5.78721,-5.787192 z m 66.64934,0 c 3.245756,0 5.790076,2.541451 5.790076,5.787192 0,3.24573 -2.54433,5.790069 -5.790076,5.790069 -3.245707,0 -5.787181,-2.544339 -5.787181,-5.790069 0,-3.245741 2.541482,-5.787192 5.787181,-5.787192 z"
         style="color:#000000;font-style:normal;font-variant:normal;font-weight:normal;font-stretch:normal;font-size:medium;line-height:normal;font-family:sans-serif;text-indent:0;text-align:start;text-decoration:none;text-decoration-line:none;text-decoration-style:solid;text-decoration-color:#000000;letter-spacing:normal;word-spacing:normal;text-transform:none;writing-mode:lr-tb;direction:ltr;baseline-shift:baseline;text-anchor:start;white-space:normal;clip-rule:nonzero;display:inline;overflow:visible;visibility:visible;opacity:1;isolation:auto;mix-blend-mode:normal;color-interpolation:sRGB;color-interpolation-filters:linearRGB;solid-color:#000000;solid-opacity:1;fill:#bce9ff;fill-opacity:1;fill-rule:nonzero;stroke:none;stroke-width:4.62695;stroke-linecap:butt;stroke-linejoin:miter;stroke-miterlimit:10;stroke-dasharray:none;stroke-dashoffset:0;stroke-opacity:1;color-rendering:auto;image-rendering:auto;shape-rendering:auto;text-rendering:auto;enable-background:accumulate"
         inkscape:export-filename="Nextcloud Hub logo variants.png"
         inkscape:export-xdpi="300"
         inkscape:export-ydpi="300" /></g></g></svg>
