<?xml version="1.0" encoding="UTF-8" standalone="no"?>
<!-- Created with Inkscape (http://www.inkscape.org/) -->

<svg
   width="120"
   height="120"
   viewBox="0 0 120 120"
   version="1.1"
   id="svg5"
   xml:space="preserve"
   inkscape:version="1.2.1 (9c6d41e410, 2022-07-14)"
   sodipodi:docname="paperless.svg"
   xmlns:inkscape="http://www.inkscape.org/namespaces/inkscape"
   xmlns:sodipodi="http://sodipodi.sourceforge.net/DTD/sodipodi-0.dtd"
   xmlns="http://www.w3.org/2000/svg"
   xmlns:svg="http://www.w3.org/2000/svg"><sodipodi:namedview
     id="namedview7"
     pagecolor="#505050"
     bordercolor="#eeeeee"
     borderopacity="1"
     inkscape:showpageshadow="0"
     inkscape:pageopacity="0"
     inkscape:pagecheckerboard="0"
     inkscape:deskcolor="#505050"
     inkscape:document-units="px"
     showgrid="false"
     inkscape:zoom="3.9333333"
     inkscape:cx="55.042373"
     inkscape:cy="69.279661"
     inkscape:window-width="1920"
     inkscape:window-height="1050"
     inkscape:window-x="0"
     inkscape:window-y="0"
     inkscape:window-maximized="1"
     inkscape:current-layer="layer1" /><defs
     id="defs2"><inkscape:path-effect
       effect="offset"
       id="path-effect5430"
       is_visible="true"
       lpeversion="1.2"
       linejoin_type="miter"
       unit="mm"
       offset="0.2"
       miter_limit="3.6"
       attempt_force_join="false"
       update_on_knot_move="true" /><inkscape:path-effect
       effect="fillet_chamfer"
       id="path-effect5428"
       is_visible="true"
       lpeversion="1"
       nodesatellites_param="F,0,0,1,0,24,0,1 @ F,0,0,1,0,24,0,1 @ F,0,0,1,0,24,0,1 @ F,0,0,1,0,24,0,1"
       unit="px"
       method="auto"
       mode="F"
       radius="24"
       chamfer_steps="1"
       flexible="false"
       use_knot_distance="true"
       apply_no_radius="true"
       apply_with_radius="true"
       only_selected="false"
       hide_knots="false" /><inkscape:path-effect
       effect="fillet_chamfer"
       id="path-effect5314"
       is_visible="true"
       lpeversion="1"
       nodesatellites_param="F,0,0,1,0,24,0,1 @ F,0,0,1,0,24,0,1 @ F,0,0,1,0,24,0,1 @ F,0,0,1,0,24,0,1"
       unit="px"
       method="auto"
       mode="F"
       radius="24"
       chamfer_steps="1"
       flexible="false"
       use_knot_distance="true"
       apply_no_radius="true"
       apply_with_radius="true"
       only_selected="false"
       hide_knots="false" /><clipPath
       clipPathUnits="userSpaceOnUse"
       id="clipPath8812"><circle
         id="circle8814"
         cx="95.669289"
         cy="95.669296"
         r="79.724197"
         style="fill:#00080d;fill-opacity:1;stroke-width:1" /></clipPath><inkscape:path-effect
       effect="fillet_chamfer"
       id="path-effect443"
       is_visible="true"
       lpeversion="1"
       nodesatellites_param="F,0,0,1,0,10.583333,0,1 @ F,0,0,1,0,10.583333,0,1 @ F,0,0,1,0,10.583333,0,1 @ F,0,0,1,0,10.583333,0,1"
       unit="px"
       method="auto"
       mode="F"
       radius="40"
       chamfer_steps="1"
       flexible="false"
       use_knot_distance="true"
       apply_no_radius="true"
       apply_with_radius="true"
       only_selected="false"
       hide_knots="false" /></defs><g
     inkscape:label="Layer 1"
     inkscape:groupmode="layer"
     id="layer1"><path
       style="fill:#1f531c;fill-opacity:1;stroke-width:2.92535"
       id="rect234"
       width="115"
       height="115"
       x="5"
       y="5"
       inkscape:path-effect="#path-effect5314"
       d="m 29,5 h 67 a 24,24 45 0 1 24,24 V 96 A 24,24 135 0 1 96,120 H 29 A 24,24 45 0 1 5,96 V 29 A 24,24 135 0 1 29,5 Z"
       sodipodi:type="rect" /><path
       style="fill:#2e7b2a;fill-opacity:1;stroke-width:2.92535"
       id="rect5424"
       width="115"
       height="115"
       x="-2.0821615e-17"
       y="-1.4802961e-16"
       inkscape:path-effect="#path-effect5428"
       d="m 24,0 h 67 a 24,24 45 0 1 24,24 V 91 A 24,24 135 0 1 91,115 H 24 A 24,24 45 0 1 0,91 V 24 A 24,24 135 0 1 24,0 Z"
       sodipodi:type="rect" /><g
       id="g5444"
       transform="matrix(1.0666667,0,0,1.0666667,-9.4399413,6.2878185)"><g
         inkscape:label="Layer 1"
         id="layer1-5"
         transform="matrix(3.543307,0,0,3.543307,-333.36344,-422.47375)"><g
           style="fill:#e1e1e1;fill-opacity:1"
           id="g18"
           transform="matrix(0.08672734,0,0,0.08672734,99.737162,118.39704)"><path
             _ngcontent-bhk-c116=""
             d="M 239.70504,27.162023 C 205.00657,107.9202 38.139727,117.93813 91.542119,248.08016 c 0.66028,1.67344 -12.35164,19.35283 -21.02625,34.03819 -2.0036,-7.34269 -4.33733,-15.34564 -4.00718,-16.0173 43.384461,-51.38743 -31.032817,-80.42806 -35.039995,-122.4692 -18.692552,33.36653 -25.3635848,91.76652 30.987265,125.47458 0.34154,0 3.0054,12.68178 4.33733,19.02267 a 66.653392,66.653392 0 0 0 -3.33552,7.34269 c -1.33193,3.33553 8.67461,3.00538 8.67461,3.66566 1.0018,-0.33013 24.70332,-42.04117 25.36358,-42.38268 C 231.7021,226.06348 255.39222,105.25635 239.70504,27.162023 Z M 171.29852,112.25752 C 108.56122,168.32377 97.883009,210.03478 99.886609,230.40079 78.860329,180.67542 140.59584,125.9411 171.29852,112.25752 Z m -121.13728,80.0979 c 12.010139,11.00834 32.034619,44.71639 15.015519,64.39935 4.00716,-9.00475 5.33911,-29.35936 -15.015519,-64.39935 z"
             id="path9"
             style="fill:#000000;fill-opacity:0.230769;stroke-width:1.1384" /><path
             _ngcontent-bhk-c116=""
             d="M 231.70542,19.162393 C 197.00694,99.920573 30.140096,109.9385 83.542489,240.08054 c 0.66028,1.67344 -12.35164,19.35282 -21.02625,34.03818 -2.0036,-7.34269 -4.33733,-15.34563 -4.00718,-16.0173 43.384461,-51.38743 -31.032818,-80.42805 -35.039996,-122.4692 -18.6925518,33.36654 -25.3635838,91.76653 30.987266,125.47458 0.34154,0 3.0054,12.68178 4.33733,19.02267 a 66.653392,66.653392 0 0 0 -3.33552,7.3427 c -1.33193,3.33552 8.67462,3.00538 8.67462,3.66565 1.0018,-0.33013 24.70331,-42.04116 25.36357,-42.38267 C 223.70247,218.06385 247.3926,97.256725 231.70542,19.162393 Z M 163.2989,104.2579 C 100.56159,160.32415 89.883389,202.03516 91.886979,222.40116 70.860709,172.67579 132.59621,117.94147 163.2989,104.2579 Z M 42.161609,184.3558 c 12.01014,11.00833 32.03462,44.71639 15.01552,64.39935 4.00716,-9.00476 5.33911,-29.35937 -15.01552,-64.39935 z"
             id="path17917"
             style="fill:#e1e1e1;fill-opacity:1;stroke-width:1.1384" /></g></g></g></g></svg>
