<?xml version="1.0" encoding="UTF-8" standalone="no"?>
<!-- Created with Inkscape (http://www.inkscape.org/) -->

<svg
   width="120"
   height="120"
   viewBox="0 0 120 120"
   version="1.1"
   id="svg5"
   xml:space="preserve"
   inkscape:version="1.2.1 (9c6d41e410, 2022-07-14)"
   sodipodi:docname="pirate.svg"
   xmlns:inkscape="http://www.inkscape.org/namespaces/inkscape"
   xmlns:sodipodi="http://sodipodi.sourceforge.net/DTD/sodipodi-0.dtd"
   xmlns="http://www.w3.org/2000/svg"
   xmlns:svg="http://www.w3.org/2000/svg"><sodipodi:namedview
     id="namedview7"
     pagecolor="#505050"
     bordercolor="#eeeeee"
     borderopacity="1"
     inkscape:showpageshadow="0"
     inkscape:pageopacity="0"
     inkscape:pagecheckerboard="0"
     inkscape:deskcolor="#505050"
     inkscape:document-units="px"
     showgrid="false"
     inkscape:zoom="3.9333334"
     inkscape:cx="28.347457"
     inkscape:cy="77.161016"
     inkscape:window-width="1920"
     inkscape:window-height="1050"
     inkscape:window-x="0"
     inkscape:window-y="0"
     inkscape:window-maximized="1"
     inkscape:current-layer="layer1" /><defs
     id="defs2"><inkscape:path-effect
       effect="offset"
       id="path-effect5430"
       is_visible="true"
       lpeversion="1.2"
       linejoin_type="miter"
       unit="mm"
       offset="0.2"
       miter_limit="3.6"
       attempt_force_join="false"
       update_on_knot_move="true" /><inkscape:path-effect
       effect="fillet_chamfer"
       id="path-effect5428"
       is_visible="true"
       lpeversion="1"
       nodesatellites_param="F,0,0,1,0,24,0,1 @ F,0,0,1,0,24,0,1 @ F,0,0,1,0,24,0,1 @ F,0,0,1,0,24,0,1"
       unit="px"
       method="auto"
       mode="F"
       radius="24"
       chamfer_steps="1"
       flexible="false"
       use_knot_distance="true"
       apply_no_radius="true"
       apply_with_radius="true"
       only_selected="false"
       hide_knots="false" /><inkscape:path-effect
       effect="fillet_chamfer"
       id="path-effect5314"
       is_visible="true"
       lpeversion="1"
       nodesatellites_param="F,0,0,1,0,24,0,1 @ F,0,0,1,0,24,0,1 @ F,0,0,1,0,24,0,1 @ F,0,0,1,0,24,0,1"
       unit="px"
       method="auto"
       mode="F"
       radius="24"
       chamfer_steps="1"
       flexible="false"
       use_knot_distance="true"
       apply_no_radius="true"
       apply_with_radius="true"
       only_selected="false"
       hide_knots="false" /><clipPath
       clipPathUnits="userSpaceOnUse"
       id="clipPath8812"><circle
         id="circle8814"
         cx="95.669289"
         cy="95.669296"
         r="79.724197"
         style="fill:#00080d;fill-opacity:1;stroke-width:1" /></clipPath></defs><g
     inkscape:label="Layer 1"
     inkscape:groupmode="layer"
     id="layer1"><path
       style="fill:#101010;fill-opacity:1;stroke-width:2.92535"
       id="rect234"
       width="115"
       height="115"
       x="5"
       y="5"
       inkscape:path-effect="#path-effect5314"
       d="m 29,5 h 67 a 24,24 45 0 1 24,24 V 96 A 24,24 135 0 1 96,120 H 29 A 24,24 45 0 1 5,96 V 29 A 24,24 135 0 1 29,5 Z"
       sodipodi:type="rect" /><path
       style="fill:#1a1a1a;fill-opacity:1;stroke-width:2.92535"
       id="rect5424"
       width="115"
       height="115"
       x="-2.0821615e-17"
       y="-1.4802961e-16"
       inkscape:path-effect="#path-effect5428"
       d="m 24,0 h 67 a 24,24 45 0 1 24,24 V 91 A 24,24 135 0 1 91,115 H 24 A 24,24 45 0 1 0,91 V 24 A 24,24 135 0 1 24,0 Z"
       sodipodi:type="rect" /><g
       id="g5444"
       transform="matrix(1.0666667,0,0,1.0666667,-6.8975684,10.101378)"><path
         style="fill:#000000;fill-opacity:0.586517;stroke-width:0.133603"
         d="m 35.31341,77.842181 c -0.523162,-0.312413 -1.752022,-1.46471 -2.153549,-2.019371 l -0.262321,-0.362368 0.706924,-0.356348 c 0.853264,-0.430118 2.518747,-1.563692 2.863,-1.948639 0.229782,-0.256941 0.197767,-0.252767 -0.419236,0.05466 -1.287117,0.641324 -2.010091,0.806455 -3.254626,0.743373 -1.705275,-0.08644 -2.68104,-0.66469 -3.649148,-2.162539 l -0.511197,-0.790921 v -1.597223 c 0,-1.5368 0.01599,-1.627216 0.422582,-2.390066 0.566869,-1.063555 1.283073,-1.851764 2.068393,-2.276337 0.863866,-0.467039 1.396365,-0.595832 3.454887,-0.835617 2.09165,-0.243644 2.819744,-0.446843 3.873964,-1.081158 1.221424,-0.734918 2.099662,-1.448173 3.934162,-3.195102 0.922441,-0.878408 1.86109,-1.765875 2.085887,-1.97215 l 0.408721,-0.375044 0.99064,0.741146 c 0.544849,0.407629 1.427993,1.013737 1.962538,1.346904 0.612061,0.381481 0.995391,0.713588 1.035342,0.896997 0.03489,0.160179 0.12462,0.645035 0.199391,1.077456 l 0.135949,0.786221 -0.633407,0.707066 c -0.348374,0.388887 -1.284482,1.411543 -2.080242,2.272571 -1.731364,1.873367 -2.807622,3.429174 -3.163252,4.572704 -0.143917,0.462766 -0.355316,1.649394 -0.469774,2.636951 -0.114458,0.987558 -0.297834,2.049874 -0.407501,2.360704 -0.492946,1.397159 -1.340671,2.344616 -2.721464,3.041638 -0.757545,0.382408 -0.888544,0.404699 -2.375406,0.404228 -1.357478,-4.01e-4 -1.637881,-0.03886 -2.041257,-0.27974 z m 50.605393,-0.141949 c -1.485886,-0.806214 -2.304025,-1.751468 -2.724135,-3.147385 -0.10389,-0.345201 -0.28023,-1.411755 -0.391864,-2.370119 -0.111637,-0.958366 -0.265796,-1.982969 -0.342578,-2.276896 -0.327973,-1.255492 -1.609577,-3.091599 -3.730204,-5.344122 -0.76097,-0.808299 -1.581896,-1.68216 -1.824284,-1.941916 l -0.440705,-0.47228 0.199466,-1.042506 c 0.109706,-0.573379 0.199465,-1.059465 0.199465,-1.080193 0,-0.02072 0.53353,-0.37591 1.185623,-0.789298 0.652092,-0.413388 1.535615,-1.023389 1.963384,-1.355558 l 0.777759,-0.603944 0.541675,0.509057 c 0.29792,0.279982 1.220044,1.154452 2.049165,1.943269 1.626608,1.547536 3.308429,2.859117 4.330006,3.376791 0.778546,0.394519 1.955405,0.668229 3.381114,0.786367 3.028561,0.250955 4.408618,1.030908 5.522755,3.121244 0.4069,0.763423 0.422581,0.852379 0.422581,2.3973 v 1.604458 l -0.519205,0.772387 c -0.630337,0.93771 -2.034639,2.155121 -2.189272,1.897913 -0.05677,-0.09443 -0.404446,-0.682718 -0.772612,-1.307312 -0.368166,-0.624594 -0.882677,-1.376112 -1.143358,-1.670038 -0.515647,-0.581412 -0.513951,-0.550763 0.04071,0.734816 0.331476,0.768291 0.374708,1.030167 0.37496,2.271252 2.67e-4,1.262805 -0.0352,1.469513 -0.355196,2.070848 -0.410059,0.770581 -0.972587,1.337691 -1.908529,1.924071 -0.645136,0.404187 -0.698882,0.413898 -2.271252,0.410422 -1.545276,-0.0034 -1.641454,-0.02037 -2.375467,-0.418628 z M 58.01625,68.226442 c -3.072505,-0.32621 -5.077841,-1.310532 -6.251957,-3.068784 -0.662512,-0.992119 -1.012751,-2.071268 -1.364165,-4.203231 -0.311413,-1.889277 -0.31758,-1.89736 -2.35287,-3.083839 -1.023063,-0.596398 -1.618712,-1.075766 -2.713617,-2.183876 -2.154177,-2.180154 -3.409648,-4.467422 -4.195193,-7.642972 -0.611099,-2.470356 -0.681469,-3.195941 -0.678515,-6.99617 0.0024,-3.120805 0.04228,-3.8262 0.295499,-5.230589 1.391915,-7.719668 5.734887,-12.817758 12.82806,-15.058489 2.876843,-0.908795 5.122084,-1.207442 9.118547,-1.212889 1.895022,-0.0026 3.642828,0.06563 4.408901,0.172071 7.918471,1.100223 12.990571,4.338988 15.90162,10.153905 1.744026,3.483752 2.37409,6.997152 2.230487,12.437759 -0.120416,4.562149 -0.911375,7.681807 -2.723319,10.741185 -1.168932,1.973683 -3.226582,3.833418 -6.368341,5.755804 -0.511744,0.313127 -0.695671,0.814752 -0.937834,2.557758 -0.241415,1.737626 -0.57113,2.692258 -1.3142,3.805011 -1.206232,1.806347 -3.021933,2.667271 -6.454406,3.060394 -1.384156,0.158529 -7.92676,0.156412 -9.428698,-0.003 z m 6.106022,-9.947211 c 1.404655,-0.823183 2.162839,-2.862338 1.922634,-5.170975 -0.136368,-1.310665 -0.469729,-2.151125 -1.153356,-2.907819 -0.896688,-0.992526 -2.006812,-1.317273 -3.034771,-0.887764 -1.030503,0.430572 -1.970828,2.018278 -2.252029,3.802477 -0.312888,1.985244 0.636222,4.366005 2.095262,5.255792 0.607046,0.370202 1.704999,0.328633 2.42226,-0.09171 z M 53.750633,47.93006 c 1.800461,-0.371324 3.04354,-1.017875 4.219572,-2.194681 1.656594,-1.657688 2.249367,-3.409258 1.873354,-5.535524 -0.501932,-2.838305 -2.837812,-4.613369 -6.039816,-4.58973 -1.942763,0.01434 -4.191956,1.04376 -6.042135,2.765384 -1.789018,1.664712 -2.534189,3.25102 -2.398004,5.104832 0.252612,3.438641 3.90185,5.374736 8.387029,4.449719 z m 21.978549,0.0689 c 2.042125,-0.390724 3.33702,-1.29174 4.107459,-2.858061 0.402204,-0.817694 0.434201,-0.981347 0.434201,-2.220828 0,-1.271808 -0.023,-1.3811 -0.464351,-2.206505 -0.304105,-0.568731 -0.903483,-1.310494 -1.73684,-2.149433 -1.09219,-1.099508 -1.452325,-1.369242 -2.541718,-1.903703 -1.73731,-0.852332 -2.689678,-1.072842 -4.275206,-0.98988 -2.128323,0.111362 -3.556163,0.860955 -4.540278,2.383573 -0.722909,1.118481 -0.991697,2.226032 -0.905808,3.732413 0.09274,1.626568 0.656562,2.815723 1.875793,3.956253 2.092217,1.957168 5.141292,2.812077 8.046748,2.256171 z M 40.99154,26.938671 c -1.464782,-1.282972 -2.910847,-2.216485 -3.914262,-2.526868 -0.462767,-0.143145 -1.656517,-0.354737 -2.652781,-0.470205 -3.16873,-0.367257 -4.332269,-1.068712 -5.469648,-3.297455 -0.286119,-0.560661 -0.321592,-0.804621 -0.321592,-2.211694 0,-1.505536 0.01811,-1.610059 0.376915,-2.175491 0.532382,-0.838964 2.194274,-2.342856 2.33053,-2.108958 1.081584,1.856655 1.541235,2.570328 1.971673,3.06131 l 0.518413,0.591327 -0.494516,-1.135626 c -0.467904,-1.074506 -0.494359,-1.211126 -0.491557,-2.538458 0.0023,-1.108634 0.05521,-1.500898 0.252111,-1.870443 0.441267,-0.828181 1.005713,-1.441886 1.836245,-1.996494 l 0.811598,-0.5419646 h 1.592453 c 1.739405,0 2.140957,0.124089 3.420127,1.0568956 1.28525,0.937239 1.791476,2.099218 2.105746,4.833476 0.32715,2.846306 0.630233,3.562483 2.481743,5.864294 0.58175,0.723237 1.057727,1.339513 1.057727,1.369505 0,0.02999 -0.62008,0.681573 -1.377956,1.447962 -0.757876,0.766388 -1.724823,1.889436 -2.148771,2.495659 -0.423947,0.606224 -0.78084,1.099337 -0.793093,1.095807 -0.01225,-0.0035 -0.50325,-0.42769 -1.091105,-0.942579 z m 42.090456,0.316139 c -0.657881,-1.036959 -1.895155,-2.504543 -2.881014,-3.417298 -0.512691,-0.474672 -0.932163,-0.901081 -0.932163,-0.947573 0,-0.04649 0.496297,-0.699573 1.102881,-1.45129 1.75667,-2.176971 2.23553,-3.310563 2.439795,-5.775661 0.251771,-3.038398 1.024455,-4.407518 3.116854,-5.522755 0.762415,-0.4063636 0.853932,-0.4225816 2.384621,-0.4225816 1.519064,0 1.618914,0.01729 2.18575,0.3785816 0.573589,0.365592 2.272059,2.070618 2.256258,2.264968 -0.0043,0.05242 -0.423377,0.302144 -0.931364,0.554937 -0.901106,0.448423 -2.733934,1.723596 -2.628663,1.828869 0.02904,0.02904 0.347362,-0.07749 0.707376,-0.236746 2.074209,-0.917521 4.05123,-0.847343 5.426363,0.19262 0.31554,0.238631 0.829225,0.813696 1.141522,1.277921 l 0.567813,0.844047 v 1.594929 c 0,1.510063 -0.02154,1.637591 -0.404728,2.396691 -0.697021,1.380793 -1.644478,2.228517 -3.041638,2.721463 -0.31083,0.109667 -1.373145,0.293043 -2.360703,0.407502 -0.987558,0.114457 -2.174185,0.325224 -2.636952,0.468369 -1.007188,0.311551 -2.456104,1.247999 -3.914262,2.529828 -0.587854,0.516766 -1.098885,0.938834 -1.135626,0.937928 -0.03674,-9.35e-4 -0.244694,-0.282043 -0.46212,-0.624749 z"
         id="path307-3-6" /><path
         style="fill:#e8e5d3;fill-opacity:1;stroke-width:0.133603"
         d="m 32.729469,76.506115 c -0.523162,-0.312413 -1.752022,-1.46471 -2.153549,-2.019371 l -0.262322,-0.362368 0.706924,-0.356348 c 0.853265,-0.430118 2.518748,-1.563692 2.863001,-1.948639 0.229781,-0.256941 0.197766,-0.252767 -0.419237,0.05466 -1.287116,0.641324 -2.010091,0.806455 -3.254626,0.743373 -1.705275,-0.08644 -2.68104,-0.66469 -3.649148,-2.162539 l -0.511196,-0.790921 v -1.597223 c 0,-1.5368 0.01599,-1.627216 0.422581,-2.390066 0.566869,-1.063555 1.283074,-1.851764 2.068393,-2.276337 0.863866,-0.467039 1.396365,-0.595832 3.454888,-0.835617 2.09165,-0.243644 2.819743,-0.446843 3.873963,-1.081158 1.221425,-0.734918 2.099662,-1.448173 3.934163,-3.195102 0.922441,-0.878408 1.86109,-1.765875 2.085887,-1.97215 l 0.408721,-0.375044 0.990639,0.741146 c 0.54485,0.407629 1.427993,1.013737 1.962539,1.346904 0.612061,0.381481 0.99539,0.713588 1.035342,0.896997 0.03489,0.160179 0.12462,0.645035 0.199391,1.077456 l 0.135949,0.786221 -0.633407,0.707066 c -0.348374,0.388887 -1.284482,1.411543 -2.080242,2.272571 -1.731365,1.873367 -2.807622,3.429174 -3.163252,4.572704 -0.143917,0.462766 -0.355316,1.649394 -0.469774,2.636951 -0.114459,0.987558 -0.297834,2.049874 -0.407501,2.360704 -0.492946,1.397159 -1.340671,2.344616 -2.721464,3.041638 -0.757545,0.382408 -0.888544,0.404699 -2.375406,0.404228 -1.357478,-4.01e-4 -1.637881,-0.03886 -2.041257,-0.27974 z m 50.605392,-0.141949 c -1.485886,-0.806214 -2.304025,-1.751468 -2.724134,-3.147385 -0.10389,-0.345201 -0.28023,-1.411755 -0.391865,-2.370119 -0.111636,-0.958366 -0.265796,-1.982969 -0.342578,-2.276896 -0.327972,-1.255492 -1.609576,-3.091599 -3.730203,-5.344122 -0.76097,-0.808299 -1.581896,-1.68216 -1.824284,-1.941916 l -0.440705,-0.47228 0.199466,-1.042506 c 0.109705,-0.573379 0.199464,-1.059465 0.199464,-1.080193 0,-0.02072 0.53353,-0.37591 1.185623,-0.789298 0.652092,-0.413388 1.535615,-1.023389 1.963384,-1.355558 l 0.777759,-0.603944 0.541675,0.509057 c 0.29792,0.279982 1.220044,1.154452 2.049165,1.943269 1.626608,1.547536 3.308429,2.859117 4.330006,3.376791 0.778546,0.394519 1.955405,0.668229 3.381114,0.786367 3.028561,0.250955 4.408618,1.030908 5.522755,3.121244 0.4069,0.763423 0.422581,0.852379 0.422581,2.3973 v 1.604458 l -0.519205,0.772387 c -0.630337,0.93771 -2.034639,2.155121 -2.189272,1.897913 -0.05677,-0.09443 -0.404446,-0.682718 -0.772612,-1.307312 -0.368166,-0.624594 -0.882677,-1.376112 -1.143358,-1.670038 -0.515647,-0.581412 -0.513951,-0.550763 0.04071,0.734816 0.331476,0.768291 0.374708,1.030167 0.37496,2.271252 2.67e-4,1.262805 -0.0352,1.469513 -0.355196,2.070848 -0.410059,0.770581 -0.972586,1.337691 -1.908529,1.924071 -0.645136,0.404187 -0.698882,0.413898 -2.271252,0.410422 -1.545275,-0.0034 -1.641454,-0.02037 -2.375467,-0.418628 z m -27.902553,-9.47379 c -3.072505,-0.32621 -5.077841,-1.310532 -6.251957,-3.068784 -0.662512,-0.992119 -1.012751,-2.071268 -1.364165,-4.203231 -0.311413,-1.889277 -0.31758,-1.89736 -2.35287,-3.083839 -1.023063,-0.596398 -1.618712,-1.075766 -2.713617,-2.183876 -2.154177,-2.180154 -3.409648,-4.467422 -4.195193,-7.642972 -0.611099,-2.470356 -0.681469,-3.195941 -0.678515,-6.99617 0.0024,-3.120805 0.04228,-3.8262 0.295499,-5.230589 1.391915,-7.719668 5.734887,-12.817758 12.82806,-15.058489 2.876843,-0.908795 5.122084,-1.207442 9.118547,-1.212889 1.895022,-0.0026 3.642829,0.06563 4.408901,0.172071 7.918471,1.100223 12.990571,4.338988 15.90162,10.153905 1.744026,3.483752 2.374091,6.997152 2.230488,12.437759 -0.120416,4.562149 -0.911375,7.681807 -2.723319,10.741185 -1.168932,1.973683 -3.226582,3.833418 -6.368341,5.755804 -0.511744,0.313127 -0.695671,0.814752 -0.937834,2.557758 -0.241415,1.737626 -0.571131,2.692258 -1.3142,3.805011 -1.206232,1.806347 -3.021933,2.667271 -6.454406,3.060394 -1.384157,0.158529 -7.92676,0.156412 -9.428698,-0.003 z m 6.106022,-9.947211 c 1.404655,-0.823183 2.162839,-2.862338 1.922634,-5.170975 -0.136368,-1.310665 -0.469729,-2.151125 -1.153356,-2.907819 -0.896688,-0.992526 -2.006812,-1.317273 -3.034771,-0.887764 -1.030503,0.430572 -1.970828,2.018278 -2.252029,3.802477 -0.312888,1.985244 0.636222,4.366005 2.095262,5.255792 0.607046,0.370202 1.704999,0.328633 2.42226,-0.09171 z M 51.166692,46.593994 c 1.80046,-0.371324 3.04354,-1.017875 4.219572,-2.194681 1.656594,-1.657688 2.249366,-3.409258 1.873354,-5.535524 -0.501932,-2.838305 -2.837813,-4.613369 -6.039816,-4.58973 -1.942763,0.01434 -4.191956,1.04376 -6.042135,2.765384 -1.789018,1.664712 -2.534189,3.25102 -2.398004,5.104832 0.252612,3.438641 3.90185,5.374736 8.387029,4.449719 z m 21.978548,0.0689 c 2.042125,-0.390724 3.337021,-1.29174 4.107459,-2.858061 0.402204,-0.817694 0.434201,-0.981347 0.434201,-2.220828 0,-1.271808 -0.023,-1.3811 -0.464351,-2.206505 -0.304105,-0.568731 -0.903483,-1.310494 -1.73684,-2.149433 -1.09219,-1.099508 -1.452325,-1.369242 -2.541718,-1.903703 -1.73731,-0.852332 -2.689678,-1.072842 -4.275206,-0.98988 -2.128323,0.111362 -3.556163,0.860955 -4.540278,2.383573 -0.722909,1.118481 -0.991697,2.226032 -0.905808,3.732413 0.09274,1.626568 0.656562,2.815723 1.875793,3.956253 2.092217,1.957168 5.141292,2.812077 8.046748,2.256171 z M 38.407599,25.602605 C 36.942817,24.319633 35.496752,23.38612 34.493337,23.075737 34.03057,22.932592 32.836819,22.721 31.840556,22.605532 28.671825,22.238275 27.508287,21.53682 26.370908,19.308077 c -0.286119,-0.560661 -0.321592,-0.804621 -0.321592,-2.211694 0,-1.505536 0.01811,-1.610059 0.376915,-2.175491 0.532381,-0.838964 2.194274,-2.342856 2.33053,-2.108958 1.081584,1.856655 1.541234,2.570328 1.971673,3.06131 l 0.518413,0.591327 -0.494517,-1.135626 c -0.467903,-1.074506 -0.494358,-1.211126 -0.491557,-2.538458 0.0023,-1.108634 0.05521,-1.500898 0.252111,-1.870443 0.441268,-0.828181 1.005714,-1.4418862 1.836246,-1.9964942 l 0.811598,-0.541964 h 1.592453 c 1.739404,0 2.140956,0.124089 3.420126,1.056895 1.28525,0.9372392 1.791476,2.0992182 2.105746,4.8334762 0.32715,2.846306 0.630233,3.562483 2.481743,5.864294 0.58175,0.723237 1.057727,1.339513 1.057727,1.369505 0,0.02999 -0.62008,0.681573 -1.377956,1.447962 -0.757876,0.766388 -1.724823,1.889436 -2.148771,2.495659 -0.423947,0.606224 -0.78084,1.099337 -0.793093,1.095807 -0.01225,-0.0035 -0.50325,-0.42769 -1.091104,-0.942579 z m 42.090456,0.316139 C 79.840174,24.881785 78.6029,23.414201 77.61704,22.501446 c -0.51269,-0.474672 -0.932163,-0.901081 -0.932163,-0.947573 0,-0.04649 0.496298,-0.699573 1.102882,-1.45129 1.75667,-2.176971 2.23553,-3.310563 2.439794,-5.775661 0.251771,-3.038398 1.024455,-4.4075182 3.116854,-5.5227552 0.762415,-0.406363 0.853932,-0.422581 2.384622,-0.422581 1.519063,0 1.618913,0.01729 2.185749,0.378581 0.57359,0.365592 2.27206,2.0706182 2.256258,2.2649682 -0.0043,0.05242 -0.423376,0.302144 -0.931363,0.554937 -0.901107,0.448423 -2.733934,1.723596 -2.628663,1.828869 0.02904,0.02904 0.347361,-0.07749 0.707376,-0.236746 2.074209,-0.917521 4.05123,-0.847343 5.426363,0.19262 0.31554,0.238631 0.829225,0.813696 1.141522,1.277921 l 0.567813,0.844047 v 1.594929 c 0,1.510063 -0.02154,1.637591 -0.404728,2.396691 -0.697021,1.380793 -1.644478,2.228517 -3.041638,2.721463 -0.31083,0.109667 -1.373145,0.293043 -2.360703,0.407502 -0.987558,0.114457 -2.174185,0.325224 -2.636952,0.468369 -1.007188,0.311551 -2.456104,1.247999 -3.914262,2.529828 -0.587854,0.516766 -1.098885,0.938834 -1.135626,0.937928 -0.03674,-9.35e-4 -0.244694,-0.282043 -0.46212,-0.624749 z"
         id="path307" /><path
         style="fill:#000000;fill-opacity:0.166292;stroke-width:0.133603"
         d="m 30.463719,74.955648 c -0.523162,-0.312413 -1.752022,-1.46471 -2.153549,-2.019371 l -0.262322,-0.362368 0.706924,-0.356348 c 0.853265,-0.430118 2.518748,-1.563692 2.863001,-1.948639 0.229781,-0.256941 0.197766,-0.252767 -0.419237,0.05466 -1.287116,0.641324 -2.010091,0.806455 -3.254626,0.743373 -1.705275,-0.08644 -2.68104,-0.66469 -3.649148,-2.162539 l -0.511196,-0.790921 v -1.597223 c 0,-1.5368 0.01599,-1.627216 0.422581,-2.390066 0.566869,-1.063555 1.283074,-1.851764 2.068393,-2.276337 0.863866,-0.467039 1.396365,-0.595832 3.454888,-0.835617 2.09165,-0.243644 2.819743,-0.446843 3.873963,-1.081158 1.221425,-0.734918 2.099662,-1.448173 3.934163,-3.195102 0.922441,-0.878408 1.86109,-1.765875 2.085887,-1.97215 l 0.408721,-0.375044 0.990639,0.741146 c 0.54485,0.407629 1.427993,1.013737 1.962539,1.346904 0.612061,0.381481 0.99539,0.713588 1.035342,0.896997 0.03489,0.160179 0.12462,0.645035 0.199391,1.077456 l 0.135949,0.786221 -0.633407,0.707066 c -0.348374,0.388887 -1.284482,1.411543 -2.080242,2.272571 -1.731365,1.873367 -2.807622,3.429174 -3.163252,4.572704 -0.143917,0.462766 -0.355316,1.649394 -0.469774,2.636951 -0.114459,0.987558 -0.297834,2.049874 -0.407501,2.360704 -0.492946,1.397159 -1.340671,2.344616 -2.721464,3.041638 -0.757545,0.382408 -0.888544,0.404699 -2.375406,0.404228 -1.357478,-4.01e-4 -1.637881,-0.03886 -2.041257,-0.27974 z m 50.605392,-0.141949 c -1.485886,-0.806214 -2.304025,-1.751468 -2.724134,-3.147385 -0.10389,-0.345201 -0.28023,-1.411755 -0.391865,-2.370119 -0.111636,-0.958366 -0.265796,-1.982969 -0.342578,-2.276896 -0.327972,-1.255492 -1.609576,-3.091599 -3.730203,-5.344122 -0.76097,-0.808299 -1.581896,-1.68216 -1.824284,-1.941916 l -0.440705,-0.47228 0.199466,-1.042506 c 0.109705,-0.573379 0.199464,-1.059465 0.199464,-1.080193 0,-0.02072 0.53353,-0.37591 1.185623,-0.789298 0.652092,-0.413388 1.535615,-1.023389 1.963384,-1.355558 l 0.777759,-0.603944 0.541675,0.509057 c 0.29792,0.279982 1.220044,1.154452 2.049165,1.943269 1.626608,1.547536 3.308429,2.859117 4.330006,3.376791 0.778546,0.394519 1.955405,0.668229 3.381114,0.786367 3.028561,0.250955 4.408618,1.030908 5.522755,3.121244 0.4069,0.763423 0.422581,0.852379 0.422581,2.3973 v 1.604458 l -0.519205,0.772387 c -0.630337,0.93771 -2.034639,2.155121 -2.189272,1.897913 -0.05677,-0.09443 -0.404446,-0.682718 -0.772612,-1.307312 -0.368166,-0.624594 -0.882677,-1.376112 -1.143358,-1.670038 -0.515647,-0.581412 -0.513951,-0.550763 0.04071,0.734816 0.331476,0.768291 0.374708,1.030167 0.37496,2.271252 2.67e-4,1.262805 -0.0352,1.469513 -0.355196,2.070848 -0.410059,0.770581 -0.972586,1.337691 -1.908529,1.924071 -0.645136,0.404187 -0.698882,0.413898 -2.271252,0.410422 -1.545275,-0.0034 -1.641454,-0.02037 -2.375467,-0.418628 z m -27.902553,-9.47379 c -3.072505,-0.32621 -5.077841,-1.310532 -6.251957,-3.068784 -0.662512,-0.992119 -1.012751,-2.071268 -1.364165,-4.203231 -0.311413,-1.889277 -0.31758,-1.89736 -2.35287,-3.083839 -1.023063,-0.596398 -1.618712,-1.075766 -2.713617,-2.183876 -2.154177,-2.180154 -3.409648,-4.467422 -4.195193,-7.642972 -0.611099,-2.470356 -0.681469,-3.195941 -0.678515,-6.99617 0.0024,-3.120805 0.04228,-3.8262 0.295499,-5.230589 1.391915,-7.719668 5.734887,-12.817758 12.82806,-15.058489 2.876843,-0.908795 5.122084,-1.207442 9.118547,-1.212889 1.895022,-0.0026 3.642829,0.06563 4.408901,0.172071 7.918471,1.100223 12.990571,4.338988 15.90162,10.153905 1.744026,3.483752 2.374091,6.997152 2.230488,12.437759 -0.120416,4.562149 -0.911375,7.681807 -2.723319,10.741185 -1.168932,1.973683 -3.226582,3.833418 -6.368341,5.755804 -0.511744,0.313127 -0.695671,0.814752 -0.937834,2.557758 -0.241415,1.737626 -0.571131,2.692258 -1.3142,3.805011 -1.206232,1.806347 -3.021933,2.667271 -6.454406,3.060394 -1.384157,0.158529 -7.92676,0.156412 -9.428698,-0.003 z m 6.106022,-9.947211 c 1.404655,-0.823183 2.162839,-2.862338 1.922634,-5.170975 -0.136368,-1.310665 -0.469729,-2.151125 -1.153356,-2.907819 -0.896688,-0.992526 -2.006812,-1.317273 -3.034771,-0.887764 -1.030503,0.430572 -1.970828,2.018278 -2.252029,3.802477 -0.312888,1.985244 0.636222,4.366005 2.095262,5.255792 0.607046,0.370202 1.704999,0.328633 2.42226,-0.09171 z M 48.900942,45.043527 c 1.80046,-0.371324 3.04354,-1.017875 4.219572,-2.194681 1.656594,-1.657688 2.249366,-3.409258 1.873354,-5.535524 -0.501932,-2.838305 -2.837813,-4.613369 -6.039816,-4.58973 -1.942763,0.01434 -4.191956,1.04376 -6.042135,2.765384 -1.789018,1.664712 -2.534189,3.25102 -2.398004,5.104832 0.252612,3.438641 3.90185,5.374736 8.387029,4.449719 z m 21.978548,0.0689 c 2.042125,-0.390724 3.337021,-1.29174 4.107459,-2.858061 0.402204,-0.817694 0.434201,-0.981347 0.434201,-2.220828 0,-1.271808 -0.023,-1.3811 -0.464351,-2.206505 -0.304105,-0.568731 -0.903483,-1.310494 -1.73684,-2.149433 -1.09219,-1.099508 -1.452325,-1.369242 -2.541718,-1.903703 -1.73731,-0.852332 -2.689678,-1.072842 -4.275206,-0.98988 -2.128323,0.111362 -3.556163,0.860955 -4.540278,2.383573 -0.722909,1.118481 -0.991697,2.226032 -0.905808,3.732413 0.09274,1.626568 0.656562,2.815723 1.875793,3.956253 2.092217,1.957168 5.141292,2.812077 8.046748,2.256171 z M 36.141849,24.052138 C 34.677067,22.769166 33.231002,21.835653 32.227587,21.52527 31.76482,21.382125 30.571069,21.170533 29.574806,21.055065 26.406075,20.687808 25.242537,19.986353 24.105158,17.75761 c -0.286119,-0.560661 -0.321592,-0.804621 -0.321592,-2.211694 0,-1.505536 0.01811,-1.610059 0.376915,-2.175491 0.532381,-0.838964 2.194274,-2.342856 2.33053,-2.108958 1.081584,1.856655 1.541234,2.570328 1.971673,3.06131 l 0.518413,0.591327 -0.494517,-1.135626 c -0.467903,-1.074506 -0.494358,-1.211126 -0.491557,-2.538458 0.0023,-1.108634 0.05521,-1.5008979 0.252111,-1.8704429 0.441268,-0.828181 1.005714,-1.441886 1.836246,-1.9964941 l 0.811598,-0.5419641 h 1.592453 c 1.739404,0 2.140956,0.124089 3.420126,1.0568952 1.28525,0.937239 1.791476,2.099218 2.105746,4.8334759 0.32715,2.846306 0.630233,3.562483 2.481743,5.864294 0.58175,0.723237 1.057727,1.339513 1.057727,1.369505 0,0.02999 -0.62008,0.681573 -1.377956,1.447962 -0.757876,0.766388 -1.724823,1.889436 -2.148771,2.495659 -0.423947,0.606224 -0.78084,1.099337 -0.793093,1.095807 -0.01225,-0.0035 -0.50325,-0.42769 -1.091104,-0.942579 z m 42.090456,0.316139 C 77.574424,23.331318 76.33715,21.863734 75.35129,20.950979 74.8386,20.476307 74.419127,20.049898 74.419127,20.003406 c 0,-0.04649 0.496298,-0.699573 1.102882,-1.45129 1.75667,-2.176971 2.23553,-3.310563 2.439794,-5.775661 0.251771,-3.0383979 1.024455,-4.4075179 3.116854,-5.522755 0.762415,-0.4063631 0.853932,-0.4225811 2.384622,-0.4225811 1.519063,0 1.618913,0.01729 2.185749,0.3785811 0.57359,0.3655921 2.27206,2.0706181 2.256258,2.2649681 -0.0043,0.05242 -0.423376,0.302144 -0.931363,0.5549369 -0.901107,0.448423 -2.733934,1.723596 -2.628663,1.828869 0.02904,0.02904 0.347361,-0.07749 0.707376,-0.236746 2.074209,-0.917521 4.05123,-0.847343 5.426363,0.19262 0.31554,0.238631 0.829225,0.813696 1.141522,1.277921 l 0.567813,0.844047 v 1.594929 c 0,1.510063 -0.02154,1.637591 -0.404728,2.396691 -0.697021,1.380793 -1.644478,2.228517 -3.041638,2.721463 -0.31083,0.109667 -1.373145,0.293043 -2.360703,0.407502 -0.987558,0.114457 -2.174185,0.325224 -2.636952,0.468369 -1.007188,0.311551 -2.456104,1.247999 -3.914262,2.529828 -0.587854,0.516766 -1.098885,0.938834 -1.135626,0.937928 -0.03674,-9.35e-4 -0.244694,-0.282043 -0.46212,-0.624749 z"
         id="path307-3" /></g></g></svg>
