<?xml version="1.0" encoding="UTF-8" standalone="no"?>
<!-- Created with Inkscape (http://www.inkscape.org/) -->

<svg
   width="120"
   height="120"
   viewBox="0 0 120 120"
   version="1.1"
   id="svg5"
   xml:space="preserve"
   inkscape:version="1.2.1 (9c6d41e410, 2022-07-14)"
   sodipodi:docname="zipline.svg"
   xmlns:inkscape="http://www.inkscape.org/namespaces/inkscape"
   xmlns:sodipodi="http://sodipodi.sourceforge.net/DTD/sodipodi-0.dtd"
   xmlns="http://www.w3.org/2000/svg"
   xmlns:svg="http://www.w3.org/2000/svg"><sodipodi:namedview
     id="namedview7"
     pagecolor="#505050"
     bordercolor="#eeeeee"
     borderopacity="1"
     inkscape:showpageshadow="0"
     inkscape:pageopacity="0"
     inkscape:pagecheckerboard="0"
     inkscape:deskcolor="#505050"
     inkscape:document-units="px"
     showgrid="false"
     inkscape:zoom="3.9333333"
     inkscape:cx="37.372881"
     inkscape:cy="58.09322"
     inkscape:window-width="1920"
     inkscape:window-height="1050"
     inkscape:window-x="0"
     inkscape:window-y="0"
     inkscape:window-maximized="1"
     inkscape:current-layer="layer1" /><defs
     id="defs2"><inkscape:path-effect
       effect="offset"
       id="path-effect5430"
       is_visible="true"
       lpeversion="1.2"
       linejoin_type="miter"
       unit="mm"
       offset="0.2"
       miter_limit="3.6"
       attempt_force_join="false"
       update_on_knot_move="true" /><inkscape:path-effect
       effect="fillet_chamfer"
       id="path-effect5428"
       is_visible="true"
       lpeversion="1"
       nodesatellites_param="F,0,0,1,0,24,0,1 @ F,0,0,1,0,24,0,1 @ F,0,0,1,0,24,0,1 @ F,0,0,1,0,24,0,1"
       unit="px"
       method="auto"
       mode="F"
       radius="24"
       chamfer_steps="1"
       flexible="false"
       use_knot_distance="true"
       apply_no_radius="true"
       apply_with_radius="true"
       only_selected="false"
       hide_knots="false" /><inkscape:path-effect
       effect="fillet_chamfer"
       id="path-effect5314"
       is_visible="true"
       lpeversion="1"
       nodesatellites_param="F,0,0,1,0,24,0,1 @ F,0,0,1,0,24,0,1 @ F,0,0,1,0,24,0,1 @ F,0,0,1,0,24,0,1"
       unit="px"
       method="auto"
       mode="F"
       radius="24"
       chamfer_steps="1"
       flexible="false"
       use_knot_distance="true"
       apply_no_radius="true"
       apply_with_radius="true"
       only_selected="false"
       hide_knots="false" /><clipPath
       clipPathUnits="userSpaceOnUse"
       id="clipPath8812"><circle
         id="circle8814"
         cx="95.669289"
         cy="95.669296"
         r="79.724197"
         style="fill:#00080d;fill-opacity:1;stroke-width:1" /></clipPath><inkscape:path-effect
       effect="fillet_chamfer"
       id="path-effect443"
       is_visible="true"
       lpeversion="1"
       nodesatellites_param="F,0,0,1,0,10.583333,0,1 @ F,0,0,1,0,10.583333,0,1 @ F,0,0,1,0,10.583333,0,1 @ F,0,0,1,0,10.583333,0,1"
       unit="px"
       method="auto"
       mode="F"
       radius="40"
       chamfer_steps="1"
       flexible="false"
       use_knot_distance="true"
       apply_no_radius="true"
       apply_with_radius="true"
       only_selected="false"
       hide_knots="false" /></defs><g
     inkscape:label="Layer 1"
     inkscape:groupmode="layer"
     id="layer1"><path
       style="fill:#231e64;fill-opacity:1;stroke-width:2.92535"
       id="rect234"
       width="115"
       height="115"
       x="5"
       y="5"
       inkscape:path-effect="#path-effect5314"
       d="m 29,5 h 67 a 24,24 45 0 1 24,24 V 96 A 24,24 135 0 1 96,120 H 29 A 24,24 45 0 1 5,96 V 29 A 24,24 135 0 1 29,5 Z"
       sodipodi:type="rect" /><path
       style="fill:#352d98;fill-opacity:1;stroke-width:2.92535"
       id="rect5424"
       width="115"
       height="115"
       x="-2.0821615e-17"
       y="-1.4802961e-16"
       inkscape:path-effect="#path-effect5428"
       d="m 24,0 h 67 a 24,24 45 0 1 24,24 V 91 A 24,24 135 0 1 91,115 H 24 A 24,24 45 0 1 0,91 V 24 A 24,24 135 0 1 24,0 Z"
       sodipodi:type="rect" /><path
       style="fill:#000000;stroke-width:0.431264;fill-opacity:0.28532609"
       d="m 70.391901,62.482149 c 0.03722,-7.511179 0.07444,-15.022359 0.111663,-22.533538 2.371951,-0.0835 4.743903,-0.167009 7.115854,-0.250514 v 5.314054 c 2.491733,-2.730902 5.409714,-5.315408 9.425836,-5.436033 4.53508,-0.136212 9.074,0.97016 12.389615,4.164633 4.425001,4.263336 5.288251,10.633588 4.710791,16.435852 -0.0579,2.045371 -1.57817,3.731466 -2.34659,5.574623 -2.60694,4.624652 -7.723512,8.062831 -13.177413,7.397987 -1.823508,-0.134284 -4.533141,-0.427587 -5.365597,-0.812972 -2.066823,-0.956835 -3.906255,-2.340757 -5.636642,-3.819142 v 16.498569 h -7.33918 c 0.03722,-7.511173 0.07444,-15.022346 0.111663,-22.533519 z m 21.800855,3.2873 c 6.541348,-3.652039 6.69734,-13.946779 0.80383,-18.287997 -4.509636,-3.746745 -11.922507,-1.740118 -14.241697,3.556433 -3.12017,5.764182 -0.354911,14.866743 6.593172,15.994373 2.31493,0.375699 4.790445,-0.11592 6.844695,-1.262809 z m -74.939699,3.828554 c 0.191669,-1.46391 -0.557588,-3.287605 0.850754,-4.286293 5.621163,-6.391774 11.432975,-12.626751 16.818286,-19.217589 -5.446672,-0.558912 -10.951888,-0.239428 -16.425244,-0.323447 0.08501,-1.940688 0.170027,-3.881375 0.255041,-5.822063 8.5534,-0.07615 17.106801,-0.152311 25.660201,-0.228466 v 6.768179 L 26.178983,66.686971 c 6.508968,0.07727 13.017936,0.154549 19.526904,0.231826 v 6.021501 H 17.242454 c 0.0035,-1.114098 0.0071,-2.228197 0.0106,-3.342295 z M 53.468621,56.336658 V 39.732999 h 6.900222 v 33.207319 h -6.900222 z m 1.509423,-22.279386 c -3.529385,-1.618225 -2.867567,-7.335427 0.895099,-8.1902 4.357436,-1.175386 7.393288,5.224728 3.708178,7.804788 -1.288797,1.008417 -3.169082,1.204241 -4.603277,0.385412 z"
       id="path22402-3"
       sodipodi:nodetypes="scccsssssscssssssssscccsssssccsscccccccccc" /><path
       style="fill:#dcdcdc;stroke-width:0.431264;fill-opacity:1"
       d="m 67.409402,60.884997 c 0.03722,-7.511179 0.07444,-15.022359 0.111663,-22.533538 2.371951,-0.0835 4.743903,-0.167009 7.115854,-0.250514 v 5.314054 c 2.491733,-2.730902 5.409714,-5.315408 9.425836,-5.436033 4.53508,-0.136212 9.074,0.97016 12.389615,4.164633 4.42501,4.263336 5.28826,10.633588 4.7108,16.435852 -0.0579,2.045371 -1.578176,3.731466 -2.346594,5.574623 -2.606945,4.624652 -7.723517,8.062831 -13.177418,7.397987 -1.823508,-0.134284 -4.533141,-0.427587 -5.365597,-0.812972 -2.066823,-0.956835 -3.906255,-2.340757 -5.636642,-3.819142 v 16.498569 h -7.33918 c 0.03722,-7.511173 0.07444,-15.022346 0.111663,-22.533519 z m 21.800855,3.2873 c 6.541348,-3.652039 6.69734,-13.946779 0.80383,-18.287997 -4.509636,-3.746745 -11.922507,-1.740118 -14.241697,3.556433 -3.12017,5.764182 -0.354911,14.866743 6.593172,15.994373 2.31493,0.375699 4.790445,-0.11592 6.844695,-1.262809 z m -74.939699,3.828554 c 0.191669,-1.46391 -0.557588,-3.287605 0.850754,-4.286293 5.621163,-6.391774 11.432975,-12.626751 16.818286,-19.217589 -5.446672,-0.558912 -10.951888,-0.239428 -16.425244,-0.323447 0.08501,-1.940688 0.170027,-3.881375 0.255041,-5.822063 8.5534,-0.07615 17.106801,-0.152311 25.660201,-0.228466 v 6.768179 L 23.196484,65.089819 c 6.508968,0.07727 13.017936,0.154549 19.526904,0.231826 v 6.021501 H 14.259955 c 0.0035,-1.114098 0.0071,-2.228197 0.0106,-3.342295 z M 50.486122,54.739506 V 38.135847 h 6.900222 V 71.343166 H 50.486122 Z M 51.995545,32.46012 c -3.529385,-1.618225 -2.867567,-7.335427 0.895099,-8.1902 4.357436,-1.175386 7.393288,5.224728 3.708178,7.804788 -1.288797,1.008417 -3.169082,1.204241 -4.603277,0.385412 z"
       id="path22402"
       sodipodi:nodetypes="scccsssssscssssssssscccsssssccsscccccccccc" /></g></svg>
